# xmcd
# 
# Track frame offsets:
#   150
#   14775
#   30150
#   42150
#   57525
#   74100
#   85800
#   101400
#   119700
#   136350
#   153975
#   170250
#   189225
#   204225
#   220875
# 
# Disc length: 3123 seconds
# 
# Revision: 2
# Processed by: cddbd v1.5.2PL0 Copyright (c) Steve Scherf et al.
# Submitted via: Synapstar 1.0 
# 
DISCID=d20c310f
DTITLE=Various Artist - DKM3042
DYEAR=1900
DGENRE=Country
TTITLE0=Ronnie McDowell - Your Gonna Ruin My Bad Reputation
TTITLE1=Rodney Crowell - I Couldn't Leave You If I Tried
TTITLE2=Ricky Skaggs - Country Boy
TTITLE3=Billy Dean - Somewhere In My Broken Heart
TTITLE4=Michael Johnson - Give Me Wings
TTITLE5=John Conlee - Busted
TTITLE6=Ronnie Milsap - There's No Getting Over Me
TTITLE7=Ronnie Milsap - What A Difference You've Made In My Life
TTITLE8=Ronnie Milsap - It Was Almost Like A Song
TTITLE9=Ronnie Milsap - Any Day Now
TTITLE10=Ronnie Milsap - I Wouldn't Have Missed It For The World
TTITLE11=Don Williams - I Believe In You
TTITLE12=Eddie Rabbitt - I Love A Rainy Night
TTITLE13=Eddie Rabbitt - On Second Thought
TTITLE14=Mel McDaniel - Baby's Got Her Blue Jeans On
EXTD=MediaType: Karaoke CD+G Producer: DK
EXTT0=
EXTT1=
EXTT2=
EXTT3=
EXTT4=
EXTT5=
EXTT6=
EXTT7=
EXTT8=
EXTT9=
EXTT10=
EXTT11=
EXTT12=
EXTT13=
EXTT14=
PLAYORDER=
